<?xml version="1.0" encoding="UTF-8" standalone="no"?>
<!-- Created with Inkscape (http://www.inkscape.org/) -->

<svg
   xmlns:dc="http://purl.org/dc/elements/1.1/"
   xmlns:cc="http://creativecommons.org/ns#"
   xmlns:rdf="http://www.w3.org/1999/02/22-rdf-syntax-ns#"
   xmlns:svg="http://www.w3.org/2000/svg"
   xmlns="http://www.w3.org/2000/svg"
   xmlns:sodipodi="http://sodipodi.sourceforge.net/DTD/sodipodi-0.dtd"
   xmlns:inkscape="http://www.inkscape.org/namespaces/inkscape"
   version="1.1"
   width="561.0625"
   height="89.15625"
   id="svg2"
   inkscape:version="0.48.5 r10040"
   sodipodi:docname="logo.svg">
  <sodipodi:namedview
     pagecolor="#ffffff"
     bordercolor="#666666"
     borderopacity="1"
     objecttolerance="10"
     gridtolerance="10"
     guidetolerance="10"
     inkscape:pageopacity="0"
     inkscape:pageshadow="2"
     inkscape:window-width="1226"
     inkscape:window-height="710"
     id="namedview3258"
     showgrid="false"
     inkscape:zoom="3.1214921"
     inkscape:cx="92.689273"
     inkscape:cy="54.857053"
     inkscape:window-x="0"
     inkscape:window-y="0"
     inkscape:window-maximized="0"
     inkscape:current-layer="svg2" />
  <defs
     id="defs4">
    <clipPath
       id="clipPath3453">
      <path
         d="m 39.578716,358.81874 c 0,165.98845 -134.56022,300.54867 -300.548666,300.54867 -165.98845,0 -300.54867,-134.56022 -300.54867,-300.54867 0,-165.98845 134.56022,-300.548675 300.54867,-300.548675 165.988446,0 300.548666,134.560225 300.548666,300.548675 z"
         id="use3455"
         style="fill:#ad1720;fill-opacity:1;stroke:#000000;stroke-width:9.99997807;stroke-linecap:round;stroke-linejoin:round;stroke-miterlimit:4;stroke-opacity:1" />
    </clipPath>
    <clipPath
       id="clipPath3447">
      <path
         d="m 657.99072,257.39974 c 0,165.98845 -134.56022,300.54867 -300.54867,300.54867 -165.98845,0 -300.548669,-134.56022 -300.548669,-300.54867 0,-165.988448 134.560219,-300.548675 300.548669,-300.548675 165.98845,0 300.54867,134.560227 300.54867,300.548675 z"
         id="use3449"
         style="fill:#ad1720;fill-opacity:1;stroke:#000000;stroke-width:9.99997807;stroke-linecap:round;stroke-linejoin:round;stroke-miterlimit:4;stroke-opacity:1" />
    </clipPath>
    <clipPath
       id="clipPath3441">
      <path
         d="m 1264.0367,257.39974 c 0,165.98845 -134.5602,300.54867 -300.54865,300.54867 -165.98845,0 -300.54867,-134.56022 -300.54867,-300.54867 0,-165.988448 134.56022,-300.548675 300.54867,-300.548675 165.98845,0 300.54865,134.560227 300.54865,300.548675 z"
         id="use3443"
         style="fill:#ad1720;fill-opacity:1;stroke:#000000;stroke-width:9.99997807;stroke-linecap:round;stroke-linejoin:round;stroke-miterlimit:4;stroke-opacity:1" />
    </clipPath>
    <clipPath
       id="clipPath3435">
      <path
         d="m 1025.0067,-181.04203 c 0,151.237049 -122.60184,273.838905 -273.8389,273.838905 -151.23705,0 -273.8389,-122.601856 -273.8389,-273.838905 0,-151.23706 122.60185,-273.83892 273.8389,-273.83892 151.23706,0 273.8389,122.60186 273.8389,273.83892 z"
         id="use3437"
         style="fill:#ad1720;fill-opacity:1;stroke:#000000;stroke-width:9.11127949;stroke-linecap:round;stroke-linejoin:round;stroke-miterlimit:4;stroke-opacity:1" />
    </clipPath>
    <clipPath
       id="clipPath3428">
      <path
         d="m 217.68127,-211.35745 a 343.83746,343.83746 0 1 1 -687.67492,0 343.83746,343.83746 0 1 1 687.67492,0 z"
         transform="matrix(0.874101,0,0,0.874101,245.087,124.283)"
         id="path3430"
         style="fill:none;stroke:#000000;stroke-width:11.44029999;stroke-linecap:round;stroke-linejoin:round;stroke-miterlimit:4;stroke-opacity:1;stroke-dasharray:none" />
    </clipPath>
    <marker
       refX="0"
       refY="0"
       orient="auto"
       id="Arrow1Lend"
       style="overflow:visible">
      <path
         d="M 0,0 5,-5 -12.5,0 5,5 0,0 z"
         transform="matrix(-0.8,0,0,-0.8,-10,0)"
         id="path3528"
         style="fill-rule:evenodd;stroke:#000000;stroke-width:1pt;marker-start:none" />
    </marker>
    <marker
       refX="0"
       refY="0"
       orient="auto"
       id="Arrow1Lstart"
       style="overflow:visible">
      <path
         d="M 0,0 5,-5 -12.5,0 5,5 0,0 z"
         transform="matrix(0.8,0,0,0.8,10,0)"
         id="path3525"
         style="fill-rule:evenodd;stroke:#000000;stroke-width:1pt;marker-start:none" />
    </marker>
    <filter
       color-interpolation-filters="sRGB"
       id="filter3340">
      <feFlood
         id="feFlood3342"
         result="flood"
         flood-color="rgb(0,0,0)"
         flood-opacity="0.5" />
      <feComposite
         in2="SourceGraphic"
         operator="in"
         in="flood"
         result="composite1"
         id="feComposite3344" />
      <feGaussianBlur
         id="feGaussianBlur3346"
         result="blur"
         stdDeviation="2.3" />
      <feOffset
         id="feOffset3348"
         result="offset"
         dy="4"
         dx="2" />
      <feComposite
         in2="offset"
         operator="over"
         in="SourceGraphic"
         result="composite2"
         id="feComposite3350" />
    </filter>
    <filter
       color-interpolation-filters="sRGB"
       id="filter3352">
      <feFlood
         id="feFlood3354"
         result="flood"
         flood-color="rgb(0,0,0)"
         flood-opacity="0.5" />
      <feComposite
         in2="SourceGraphic"
         operator="in"
         in="flood"
         result="composite1"
         id="feComposite3356" />
      <feGaussianBlur
         id="feGaussianBlur3358"
         result="blur"
         stdDeviation="2.3" />
      <feOffset
         id="feOffset3360"
         result="offset"
         dy="4"
         dx="2" />
      <feComposite
         in2="offset"
         operator="over"
         in="SourceGraphic"
         result="composite2"
         id="feComposite3362" />
    </filter>
    <filter
       color-interpolation-filters="sRGB"
       id="filter3364">
      <feFlood
         id="feFlood3366"
         result="flood"
         flood-color="rgb(0,0,0)"
         flood-opacity="0.5" />
      <feComposite
         in2="SourceGraphic"
         operator="in"
         in="flood"
         result="composite1"
         id="feComposite3368" />
      <feGaussianBlur
         id="feGaussianBlur3370"
         result="blur"
         stdDeviation="2.3" />
      <feOffset
         id="feOffset3372"
         result="offset"
         dy="4"
         dx="2" />
      <feComposite
         in2="offset"
         operator="over"
         in="SourceGraphic"
         result="composite2"
         id="feComposite3374" />
    </filter>
    <filter
       color-interpolation-filters="sRGB"
       id="filter3376">
      <feFlood
         id="feFlood3378"
         result="flood"
         flood-color="rgb(0,0,0)"
         flood-opacity="0.5" />
      <feComposite
         in2="SourceGraphic"
         operator="in"
         in="flood"
         result="composite1"
         id="feComposite3380" />
      <feGaussianBlur
         id="feGaussianBlur3382"
         result="blur"
         stdDeviation="2.3" />
      <feOffset
         id="feOffset3384"
         result="offset"
         dy="4"
         dx="2" />
      <feComposite
         in2="offset"
         operator="over"
         in="SourceGraphic"
         result="composite2"
         id="feComposite3386" />
    </filter>
    <filter
       color-interpolation-filters="sRGB"
       id="filter3388">
      <feFlood
         id="feFlood3390"
         result="flood"
         flood-color="rgb(0,0,0)"
         flood-opacity="0.5" />
      <feComposite
         in2="SourceGraphic"
         operator="in"
         in="flood"
         result="composite1"
         id="feComposite3392" />
      <feGaussianBlur
         id="feGaussianBlur3394"
         result="blur"
         stdDeviation="2.3" />
      <feOffset
         id="feOffset3396"
         result="offset"
         dy="4"
         dx="2" />
      <feComposite
         in2="offset"
         operator="over"
         in="SourceGraphic"
         result="composite2"
         id="feComposite3398" />
    </filter>
  </defs>
  <metadata
     id="metadata7">
    <rdf:RDF>
      <cc:Work
         rdf:about="">
        <dc:format>image/svg+xml</dc:format>
        <dc:type
           rdf:resource="http://purl.org/dc/dcmitype/StillImage" />
        <dc:title />
      </cc:Work>
    </rdf:RDF>
  </metadata>
  <rect
     style="fill:#ffffff;fill-opacity:1;stroke:none;stroke-width:2;stroke-linecap:round;stroke-linejoin:miter;stroke-miterlimit:4;stroke-opacity:1;stroke-dasharray:none;stroke-dashoffset:0"
     id="rect3261"
     width="250.52121"
     height="69.197678"
     x="5.7664728"
     y="10.027426" />
  <g
     transform="matrix(0,-1,1,0,-12.900657,906.21118)"
     id="g12143"
     style="fill:#87de87;stroke:#87de87" />
  <g
     transform="matrix(0,-1,1,0,-12.900657,906.21118)"
     id="g12151"
     style="fill:#80b3ff;stroke:#80b3ff" />
  <g
     transform="matrix(0,-1,1,0,-12.900657,906.21118)"
     id="g12159"
     style="fill:#e580ff;stroke:#e580ff" />
  <g
     transform="matrix(0,-1,1,0,-12.900657,906.21118)"
     id="g12167"
     style="fill:#ff8080;stroke:#ff8080" />
  <g
     transform="matrix(0,-1,1,0,-12.900657,906.21118)"
     id="g12175"
     style="fill:#ffdd55;stroke:#ffdd55" />
  <g
     transform="matrix(0,-1,1,0,-12.900657,906.21118)"
     id="g12183"
     style="fill:#e580ff;stroke:#e580ff" />
  <g
     transform="matrix(0,-1,1,0,-12.900657,906.21118)"
     id="g12191"
     style="fill:#87de87;stroke:#87de87" />
  <g
     transform="matrix(0,-1,1,0,-12.900657,906.21118)"
     id="g12199"
     style="fill:#80b3ff;stroke:#80b3ff" />
  <g
     transform="matrix(0,-1,1,0,-12.900657,906.21118)"
     id="g12207"
     style="fill:#ffdd55;stroke:#ffdd55" />
  <g
     transform="matrix(0,-1,1,0,-12.900657,906.21118)"
     id="g12215"
     style="fill:#ff8080;stroke:#ff8080" />
  <path
     d="M 1.497907,1.1919026 1.0546612,88.91381 261.81736,87.97862 261.23303,1.2842846 1.497907,1.1918846 z m 11.774973,19.6282914 24.76467,0 24.76466,0 0,24.015791 c 0,13.20868 -0.15721,24.01579 -0.33307,24.01579 -0.17586,0 -5.73598,-2.66916 -12.36273,-5.92697 l -12.04927,-5.92698 -12.06886,5.92698 c -6.63394,3.25781 -12.19833,5.92697 -12.38233,5.92697 -0.18401,0 -0.33307,-10.80711 -0.33307,-24.01579 z m 62.38188,0 c 0.17586,0 5.75166,2.667243 12.38233,5.926974 l 12.04927,5.926974 12.04927,-5.926974 c 6.62219,-3.259731 12.19048,-5.926974 12.38233,-5.926974 0.19185,0 0.35266,10.807109 0.35266,24.015791 l 0,24.01579 -24.76467,0 -24.76466,0 0,-24.01579 c 0,-13.208682 0.13761,-24.015791 0.31347,-24.015791 z m 62.95006,0.73125 24.76467,0 24.76467,0 0,24.015791 c 0,13.20868 -0.13762,24.01579 -0.31348,24.01579 -0.17586,0 -5.75556,-2.66916 -12.38233,-5.92697 l -12.04927,-5.90773 -12.04926,5.90773 c -6.63392,3.25781 -12.21792,5.92697 -12.40193,5.92697 -0.18401,0 -0.33307,-10.80711 -0.33307,-24.01579 z m 62.38189,0 c 0.17586,0 5.75167,2.667243 12.38233,5.926974 l 12.04927,5.926974 12.04926,-5.926974 c 6.6222,-3.259731 12.19049,-5.926974 12.38234,-5.926974 0.19185,0 0.35266,10.807109 0.35266,24.015791 l 0,24.01579 -24.76467,0 -24.76467,0 0,-24.01579 c 0,-13.208682 0.13762,-24.015791 0.31348,-24.015791 z"
     id="path4080"
     style="fill:#ad1720;fill-opacity:1;stroke:#000000;stroke-width:2.4000001;stroke-linejoin:miter;stroke-miterlimit:4;stroke-opacity:1;stroke-dasharray:none"
     inkscape:connector-curvature="0"
     sodipodi:nodetypes="cccccccccsscccsscscccsscccsscccsscccsscscccsscccss" />
  <text
     x="274.20029"
     y="34.719639"
     transform="scale(1.0135124,0.98666775)"
     id="text4085"
     xml:space="preserve"
     style="font-size:35.3524704px;font-style:normal;font-weight:normal;text-align:start;line-height:125%;letter-spacing:0px;word-spacing:0px;text-anchor:start;fill:#000000;fill-opacity:1;stroke:none;font-family:Sans"><tspan
       x="274.20029"
       y="34.719639"
       id="tspan4089"
       style="font-style:normal;font-variant:normal;font-weight:normal;font-stretch:normal;text-align:start;text-anchor:start;font-family:Arial;-inkscape-font-specification:Arial" /></text>
  <path
     style="fill:#1b8519;fill-opacity:1;stroke:#000000;stroke-width:2;stroke-linecap:round;stroke-linejoin:miter;stroke-miterlimit:4;stroke-opacity:1;stroke-dashoffset:0"
     d="m 261.4379,0.99188459 298.61047,0 0,87.04914441 -298.61047,0 z"
     id="rect3158"
     inkscape:connector-curvature="0"
     sodipodi:nodetypes="ccccc" />
  <path
     d="m 161.25306,71.294845 c -4.97149,0.46047 -7.35522,-1.63088 -10.43189,-9.15213 -3.74896,-9.16584 -1.823,-14.92941 5.3986,-16.15335 4.21419,-0.7142 6.37785,0.33904 9.17229,4.46547 6.66015,9.8347 4.63591,20.02724 -4.139,20.84001 z m -2.80358,-16.53086 c -1.48763,-2.39852 -1.17464,-0.5392 0.69565,4.13179 1.87,4.67112 3.08743,6.63345 2.70484,4.36095 -0.3826,-2.27248 -1.91279,-6.09422 -3.40027,-8.49282 z m 18.88777,7.47692 c -5.37164,-0.46944 -12.41715,-16.80209 -9.35792,-21.69302 3.31231,-5.29556 12.33968,-5.82956 14.35199,-0.84894 1.05455,2.61012 0.59529,4.6552 -1.20907,5.3842 -1.60018,0.64652 -3.37208,0.0304 -3.93753,-1.36912 -0.56545,-1.39953 -1.90098,-2.19194 -2.96777,-1.76093 -1.06676,0.43102 -0.55164,4.21888 1.14468,8.41747 1.69635,4.19861 3.9571,7.2812 5.02386,6.85019 1.0668,-0.431 1.47705,-1.92875 0.91159,-3.32829 -0.56545,-1.39952 0.28116,-3.07358 1.88133,-3.72008 4.21142,-1.70153 6.14328,4.90953 2.56053,8.76266 -3.62069,3.89401 -3.26653,3.75465 -8.40167,3.30592 z m 11.94454,-16.50778 c -3.80774,-9.42451 -4.19738,-12.11741 -1.88832,-13.05033 1.68525,-0.6809 3.61358,0.40825 4.58285,2.58838 l 1.67343,3.76387 0.56265,-4.66729 c 0.8447,-7.00747 6.09913,-8.34761 6.62276,-1.68913 0.22755,2.89272 0.87637,6.40456 1.44182,7.8041 0.56544,1.39955 2.53827,4.37644 4.38401,6.61537 2.62166,3.17992 2.69446,4.338 0.33263,5.29223 -1.66269,0.67179 -4.45261,0.24497 -6.19969,-0.94846 -3.02518,-2.06662 -3.12212,-2.02745 -2.03604,0.82261 0.62707,1.64599 -0.16877,3.52152 -1.76895,4.16803 -2.30906,0.9329 -3.89944,-1.27488 -7.70719,-10.69936 z m -56.93467,21.02977 c -4.39173,-10.86988 -4.4587,-12.01183 -0.79099,-13.49367 8.75076,-3.53555 12.02724,-1.75562 16.57999,9.0071 3.30599,7.81552 3.65603,10.44355 1.50667,11.31195 -1.69334,0.68413 -3.47694,-0.54482 -4.51329,-3.10983 -0.94241,-2.33256 -2.58628,-3.88839 -3.65307,-3.45738 -1.06679,0.431 -1.1686,2.69214 -0.22616,5.02469 1.06616,2.63887 0.61436,4.68509 -1.19595,5.41653 -2.30905,0.93292 -3.89943,-1.27488 -7.70718,-10.69939 z m 7.64194,-9.00753 c -0.37696,-0.933 -1.55821,-1.34375 -2.62498,-0.91276 -1.06678,0.43102 -1.63125,1.54707 -1.25428,2.48008 0.37697,0.93303 1.55828,1.34374 2.62507,0.91272 1.06678,-0.43102 1.63117,-1.54704 1.25421,-2.48007 z"
     id="path4576"
     style="fill:#1b8519;fill-opacity:1;stroke:#000000;stroke-width:1.60000002;stroke-miterlimit:4;stroke-opacity:1;stroke-dasharray:none;filter:url(#filter3388)" />
  <path
     d="m 392.12751,62.194545 -4.83912,-11.97722 7.48632,-2.41225 c 6.87356,-2.21474 7.72353,-1.9709 10.38439,2.97936 2.32554,4.32645 2.17861,5.89313 -0.74419,7.93077 -2.6204,1.82685 -3.0878,3.91157 -1.66602,7.43061 1.51931,3.76043 1.07933,5.25375 -1.90302,6.45869 -3.51295,1.41933 -4.33617,0.43638 -8.71836,-10.40996 z m 6.94017,-8.97485 c -1.16593,-1.10309 -1.46314,-0.51542 -0.75775,1.4984 0.63834,1.82228 1.50156,2.63902 1.9183,1.81494 0.41677,-0.82413 -0.10547,-2.31511 -1.16063,-3.3133 z m 34.6122,3.41715 c -1.07665,-1.05105 -3.34933,-6.12679 -5.05045,-11.27943 l -3.09288,-9.36847 6.7887,-2.7428 c 5.96398,-2.40961 7.09224,-2.20618 9.28726,1.67435 1.78473,3.15505 1.63049,4.76788 -0.5397,5.64468 -1.67104,0.67516 -3.4827,0.12757 -4.0259,-1.21695 -0.54321,-1.34446 -2.05109,-2.56364 -3.35088,-2.70927 -1.44346,-0.16174 -1.14711,2.74518 0.76151,7.46917 1.71858,4.25369 3.99753,7.38132 5.06433,6.9503 1.0668,-0.43101 1.477,-1.92873 0.91155,-3.32828 -0.56545,-1.39953 0.28117,-3.07359 1.88136,-3.7201 3.48044,-1.4062 5.98997,3.71921 3.87177,7.90766 -2.04258,4.03889 -10.09214,7.07623 -12.50667,4.71914 z m -52.86976,20.8254 c -3.83367,0.11973 -6.05569,-6.15605 -2.66469,-7.52611 1.51128,-0.61059 3.52299,-0.31339 4.47044,0.66052 0.94745,0.97384 2.21768,0.86539 2.82276,-0.24112 0.60504,-1.1065 -2.04229,-2.731 -5.88298,-3.61001 -9.74472,-2.23031 -11.40588,-9.29888 -3.16611,-13.47275 4.1325,-2.09333 6.55964,-2.26755 8.27409,-0.59386 3.38732,3.30674 1.84106,5.28894 -3.62884,4.65186 -6.66909,-0.77677 -4.63636,1.95888 3.00334,4.04188 8.69962,2.37202 11.19003,10.3642 4.27406,13.71636 -2.59428,1.25744 -5.97021,2.32548 -7.50208,2.37327 z m 34.14165,-15.23026 c -2.00066,-0.9118 -4.61804,-5.31291 -6.43464,-10.8199 l -3.06222,-9.28293 6.78869,-2.74282 6.78868,-2.7428 4.45506,11.02662 c 4.28133,10.59672 4.26753,11.12555 -0.35406,13.56278 -2.64497,1.39482 -6.32667,1.84442 -8.18151,0.99905 z m 3.30334,-13.55099 c -1.90861,-4.72398 -3.71474,-7.0209 -4.64072,-5.90184 -0.83383,1.00765 -0.30056,4.84058 1.18508,8.51762 1.48561,3.67703 3.57397,6.33286 4.64074,5.90184 1.06678,-0.43101 0.53351,-4.26396 -1.1851,-8.51762 z m 32.19602,-0.7935 c -1.07664,-1.05104 -3.34642,-6.11964 -5.04402,-11.26353 -2.39778,-7.26577 -2.37997,-9.7845 0.0798,-11.28837 2.06465,-1.26222 3.62166,-0.86787 4.475,1.1335 1.23232,2.89036 1.35395,2.84965 2.08625,-0.69825 0.42767,-2.07211 1.99807,-4.26059 3.48975,-4.86328 2.17119,-0.87723 2.71769,0.0828 2.73988,4.813 0.0196,4.16984 1.28959,7.22782 4.31549,10.39082 5.66544,5.92204 6.01839,7.14058 2.48214,8.56932 -1.63458,0.6604 -4.4553,-0.19792 -6.26827,-1.90744 l -3.29631,-3.10818 1.41917,3.8666 c 1.56108,4.25307 -3.26243,7.49586 -6.47901,4.35578 z"
     id="path4663"
     style="fill:#a317ad;fill-opacity:1;stroke:#000000;stroke-width:1.60000002;stroke-miterlimit:4;stroke-opacity:1;stroke-dasharray:none;filter:url(#filter3352)" />
  <path
     d="m 470.59201,61.798215 c -3.80774,-9.4245 -4.19739,-12.11742 -1.88831,-13.05035 2.30908,-0.93293 3.89944,1.27487 7.7072,10.69937 3.80773,9.42449 4.19739,12.11742 1.88829,13.05034 -2.30908,0.93294 -3.89945,-1.27487 -7.70718,-10.69936 z m 19.33059,4.5657 c -4.14836,1.25032 -7.69571,1.89404 -7.88299,1.43048 -0.18725,-0.46353 -0.74363,-4.71556 -1.23575,-9.44904 -0.70611,-6.78804 -1.53052,-8.67744 -3.90231,-8.9432 -4.35336,-0.48772 -2.64068,-4.87284 2.75452,-7.05264 6.40044,-2.58596 7.67497,-1.19008 8.21062,8.99216 0.25585,4.86668 1.16403,9.0914 2.01779,9.38826 3.70722,1.28903 6.5947,-1.8716 5.09682,-5.57898 -3.9237,-9.71153 -3.59902,-15.56584 0.96553,-17.41001 4.65937,-1.88251 5.31881,-1.26904 14.41942,13.41408 4.34412,7.00891 2.55245,10.19649 -4.37699,7.78705 -2.45001,-0.85189 -2.96724,-0.64291 -2.32755,0.94039 0.45236,1.11963 -0.75683,2.52449 -2.68709,3.12193 -1.93028,0.59736 -6.90368,2.10923 -11.05201,3.35952 z m 10.9603,-17.17401 c -1.16593,-1.10311 -1.46316,-0.51543 -0.75776,1.49837 0.63833,1.8223 1.5015,2.63907 1.91831,1.81495 0.41677,-0.82413 -0.10547,-2.31511 -1.16063,-3.31329 z m 28.46557,-10.63751 c -3.87468,-11.16884 -3.83825,-11.79558 0.8287,-14.25521 6.75355,-3.55935 12.88738,-0.915 16.05322,6.92069 4.13031,10.22289 3.40176,12.45932 -5.18944,15.93039 l -7.63961,3.0866 z m 7.3927,-6.90636 c -1.48766,-2.39852 -1.17463,-0.5392 0.69565,4.1318 1.87124,4.6706 3.08745,6.63342 2.70485,4.36092 -0.38261,-2.27248 -1.9128,-6.09421 -3.40056,-8.49271 z m -80.41194,33.9414 c -3.80775,-9.42449 -4.1974,-12.11741 -1.88832,-13.05034 2.23551,-0.90322 3.78761,0.99804 6.70061,8.20798 2.73766,6.77596 4.7093,9.32818 7.09514,9.18445 5.59782,-0.33719 4.84007,2.70475 -1.29081,5.18177 l -5.81887,2.35099 z m 54.30956,-21.94249 c -4.39171,-10.86989 -4.45865,-12.01184 -0.79097,-13.4937 8.75077,-3.53553 12.02724,-1.75561 16.57997,9.00714 3.30591,7.81553 3.65607,10.44351 1.50671,11.31191 -1.69339,0.68418 -3.47694,-0.54481 -4.5133,-3.10983 -0.94242,-2.33255 -2.58631,-3.88837 -3.6531,-3.45735 -1.0668,0.43101 -1.16857,2.69211 -0.22617,5.02467 1.06617,2.63885 0.61434,4.6851 -1.19595,5.41651 -2.3091,0.93294 -3.89947,-1.27486 -7.70721,-10.69935 z m 8.02511,-8.05921 c -0.16623,-0.41145 -1.36569,-0.86723 -2.66547,-1.01289 -1.29977,-0.14559 -2.03658,0.54366 -1.63737,1.53174 0.39921,0.9881 1.59868,1.44388 2.66545,1.01289 1.0668,-0.43101 1.80362,-1.12031 1.63739,-1.53174 z"
     id="path4665"
     style="fill:#ada317;fill-opacity:1;stroke:#000000;stroke-width:1.60000002;stroke-miterlimit:4;stroke-opacity:1;stroke-dasharray:none;filter:url(#filter3340)" />
  <path
     d="m 232.37833,63.406205 c -3.30101,-12.318 -2.90024,-14.81409 2.57219,-16.02121 3.70976,-0.81831 7.12292,2.59173 14.19349,14.18073 3.11913,5.1124 3.10035,6.14735 -0.13537,7.45466 -2.06651,0.83492 -4.12737,0.60195 -4.57972,-0.51765 -0.63971,-1.58331 -1.15699,-1.37431 -2.32761,0.94041 -0.82775,1.63681 -2.6831,3.45202 -4.1229,4.03374 -2.05693,0.83107 -3.25677,-1.32666 -5.60008,-10.07068 z m 7.33211,-4.81236 c -1.1659,-1.10314 -1.46316,-0.51544 -0.75772,1.49834 0.63833,1.82231 1.5015,2.63907 1.9183,1.81496 0.41674,-0.82412 -0.10546,-2.3151 -1.16066,-3.31328 z m 26.52596,-9.85385 c -3.9245,-11.31236 -3.89078,-11.76774 1.06423,-14.37431 3.65506,-1.92277 5.42384,-1.93264 6.19071,-0.0346 0.59048,1.46151 0.20084,3.00993 -0.86598,3.44092 -2.78356,1.12464 -0.5305,5.58828 2.82664,5.60018 2.25944,0.008 2.41936,0.40383 0.79961,1.97913 -2.79729,2.72049 -0.74386,6.92451 3.26419,6.68309 5.97319,-0.35982 4.65914,2.77785 -2.34919,5.60939 l -6.87733,2.77863 z m -51.36215,19.20972 c -4.95365,-12.26074 -3.63624,-15.54578 6.25327,-15.59287 7.1423,-0.034 11.3169,8.62888 6.09136,12.64058 -2.2007,1.68953 -2.84216,4.13402 -1.77683,6.77082 1.21036,2.99576 0.60415,4.55624 -2.21196,5.69404 -3.48332,1.40735 -4.3362,0.43637 -8.35584,-9.51257 z m 6.57763,-9.87223 c -1.16596,-1.10311 -1.46315,-0.51544 -0.75779,1.49836 0.63834,1.82232 1.50158,2.63904 1.9183,1.81498 0.41674,-0.82412 -0.10547,-2.31511 -1.16065,-3.31329 z m 28.01448,-5.02862 c -4.27263,-10.57514 -4.39052,-12.03938 -1.07714,-13.37807 7.37393,-2.97926 10.6405,-2.04259 12.96819,3.7186 1.67741,4.15174 1.36975,6.33993 -1.16482,8.28578 -2.20072,1.68954 -2.84225,4.13404 -1.77691,6.77087 1.02511,2.53724 0.54668,4.57948 -1.24214,5.30219 -2.30904,0.93293 -3.89944,-1.27487 -7.70718,-10.69937 z m 4.95916,-8.29359 c -1.16591,-1.10313 -1.46317,-0.51544 -0.75772,1.49835 0.63832,1.8223 1.50149,2.63906 1.9183,1.81496 0.41674,-0.82412 -0.10554,-2.31511 -1.16066,-3.31328 z m 26.07488,-4.24497 c -4.39172,-10.86988 -4.45871,-12.01183 -0.79099,-13.49369 8.75077,-3.53554 10.56319,-1.26792 11.64695,9.13148 0.50037,4.80141 5.77893,4.97407 7.4502,6.4953 1.67124,1.52123 -0.26482,4.39101 -1.85734,5.03442 -2.66072,1.07501 -4.46056,0.0682 -6.65657,-3.72386 l -3.00987,-5.19724 1.9171,5.63873 c 1.26889,3.73214 0.93344,6.03619 -0.99233,6.81424 -2.30907,0.93291 -3.89944,-1.27489 -7.70718,-10.69936 z m 4.95915,-8.2936 c -1.1659,-1.10312 -1.46307,-0.51547 -0.75773,1.49834 0.63834,1.82231 1.50155,2.63906 1.9183,1.81498 0.41674,-0.82413 -0.10547,-2.31511 -1.16066,-3.31329 z"
     id="path4669"
     style="fill:#1721ad;fill-opacity:1;stroke:#000000;stroke-width:1.60000002;stroke-miterlimit:4;stroke-opacity:1;stroke-dasharray:none;filter:url(#filter3376)" />
  <path
     d="m 312.03783,71.307885 c -1.99499,-0.90922 -4.61509,-5.31756 -6.42937,-10.81752 -2.98059,-9.03548 -2.90716,-9.34558 2.75667,-11.63392 4.906,-1.98214 6.21084,-1.65798 8.31741,2.0662 3.10486,5.48897 -2.11576,8.5034 -5.6909,3.28593 -1.31042,-1.91254 -0.93289,0.37691 0.8391,5.08762 2.4748,6.5794 3.40206,7.69152 3.99942,4.79744 1.18054,-5.71987 4.56351,-5.97273 5.99281,-0.44794 1.46165,5.64971 -4.30063,10.16182 -9.78516,7.66219 z m 24.96322,-8.60619 c -3.39883,-1.18181 -4.43723,-6.84889 -1.47424,-8.04601 1.60024,-0.64655 3.26933,-0.28492 3.70913,0.80362 0.43979,1.08852 1.1781,1.23073 1.64072,0.31598 0.46262,-0.91474 -1.86509,-2.69936 -5.17262,-3.96587 -8.66411,-3.3177 -9.76714,-10.05241 -2.15034,-13.12979 3.97442,-1.60578 6.3739,-1.49142 7.64544,0.36431 2.12606,3.10295 -2.90728,5.99847 -5.76197,3.31465 -1.24787,-1.17322 -1.55303,-0.88614 -0.95363,0.89727 0.48483,1.44239 3.07616,2.87815 5.75871,3.19058 7.41105,0.86317 9.77138,11.02521 3.34821,14.41517 -2.59537,1.36976 -5.5606,2.19788 -6.5894,1.84006 z m 31.28597,-14.11996 c -1.99499,-0.90922 -4.61508,-5.31756 -6.42935,-10.81752 -2.98059,-9.03549 -2.90717,-9.34558 2.75667,-11.63392 l 5.81886,-2.35097 4.45505,11.02665 c 3.99509,9.88821 4.05811,11.24779 0.6105,13.16851 -2.1145,1.17804 -5.35981,1.45129 -7.21173,0.60725 z m -0.67106,-16.23708 c -1.48763,-2.39853 -1.17463,-0.53921 0.69565,4.13179 1.87148,4.67051 3.08742,6.63344 2.70482,4.36096 -0.3826,-2.2725 -1.91278,-6.09424 -3.40025,-8.49284 z m 33.39279,4.49626 c -3.39885,-1.18181 -4.43718,-6.84892 -1.47418,-8.04605 1.60019,-0.64651 3.26925,-0.28487 3.70905,0.80365 0.4398,1.08853 1.17812,1.23073 1.64073,0.31597 0.46261,-0.91472 -1.86502,-2.69936 -5.17257,-3.96588 -7.7884,-2.98232 -9.6287,-9.85307 -3.5443,-13.23259 3.97511,-2.20792 8.64296,-1.26807 10.06432,2.02637 0.91175,2.11317 -4.8275,3.59764 -6.78694,1.75544 -1.46804,-1.38018 -1.69432,-1.28877 -1.13144,0.45714 0.38703,1.20028 3.13768,3.02873 6.11267,4.06316 7.67066,2.66718 9.48214,10.65244 3.17203,13.98273 -2.59537,1.36976 -5.56055,2.19787 -6.58937,1.84006 z m -105.42532,40.62127 c -1.02875,-0.35772 -2.43593,-2.04994 -3.12705,-3.7605 -1.60527,-3.97322 4.10687,-6.4399 5.91494,-2.55416 0.8956,1.92475 1.39271,2.0096 1.47138,0.25114 0.0654,-1.46066 -2.51119,-3.66275 -5.72552,-4.8936 -8.5028,-3.25583 -9.52778,-10.01585 -1.98101,-13.06494 3.97435,-1.60574 6.3739,-1.4914 7.64542,0.3644 2.12609,3.10295 -2.90734,5.99848 -5.76201,3.31469 -1.24788,-1.17323 -1.55303,-0.88613 -0.95356,0.89723 0.48481,1.44237 3.07616,2.87817 5.75863,3.19062 7.41105,0.86315 9.77137,11.02521 3.34821,14.41518 -2.59537,1.36975 -5.56052,2.19784 -6.5894,1.84004 z m 27.27635,-23.44424 c -3.92227,-9.70799 -4.27888,-12.24892 -1.85679,-13.2275 2.462,-0.99472 3.71299,0.85333 6.99633,10.33596 2.53146,7.31093 3.21261,12.1637 1.8568,13.22752 -1.57817,1.23829 -3.41838,-1.48024 -6.99634,-10.33598 z m 28.97285,0.71807 c -1.02875,-0.35771 -2.43593,-2.04993 -3.12703,-3.76048 -1.6053,-3.97322 4.10685,-6.4399 5.91493,-2.55417 0.89559,1.92476 1.39269,2.0096 1.47138,0.25115 0.0654,-1.46067 -2.51121,-3.66275 -5.72553,-4.8936 -8.5028,-3.25584 -9.52779,-10.01585 -1.98102,-13.06494 3.97435,-1.60574 6.3739,-1.4914 7.64543,0.36439 2.12608,3.10296 -2.90734,5.9985 -5.76201,3.3147 -1.24789,-1.17323 -1.55305,-0.88614 -0.95356,0.89724 0.48482,1.44236 3.07617,2.87816 5.75861,3.19061 7.41108,0.86316 9.77139,11.02521 3.34823,14.41517 -2.59539,1.36976 -5.56053,2.19785 -6.58939,1.84006 z m 27.2764,-23.44423 -4.85486,-12.01622 5.68818,-2.29816 c 6.50795,-2.62939 8.13138,-1.19296 12.87906,11.39551 3.68389,9.76781 0.48154,15.29705 -3.61313,6.23846 l -2.51413,-5.56196 0.77443,5.44431 c 0.4259,2.99436 -0.1884,6.20254 -1.36514,7.12929 -1.57725,1.24216 -3.41544,-1.47298 -6.99441,-10.33123 z"
     id="path4667"
     style="fill:#17ada3;fill-opacity:1;stroke:#000000;stroke-width:1.60000002;stroke-miterlimit:4;stroke-opacity:1;stroke-dasharray:none;filter:url(#filter3364)" />
</svg>
