<?xml version="1.0" encoding="UTF-8" standalone="no"?>
<!-- Created with Inkscape (http://www.inkscape.org/) -->

<svg
   xmlns:dc="http://purl.org/dc/elements/1.1/"
   xmlns:cc="http://creativecommons.org/ns#"
   xmlns:rdf="http://www.w3.org/1999/02/22-rdf-syntax-ns#"
   xmlns:svg="http://www.w3.org/2000/svg"
   xmlns="http://www.w3.org/2000/svg"
   xmlns:sodipodi="http://sodipodi.sourceforge.net/DTD/sodipodi-0.dtd"
   xmlns:inkscape="http://www.inkscape.org/namespaces/inkscape"
   width="169.34383"
   height="192.85582"
   id="svg2"
   version="1.1"
   inkscape:version="0.48.5 r10040"
   sodipodi:docname="MAMA.svg">
  <defs
     id="defs4">
    <clipPath
       id="clipPath3453"
       clipPathUnits="userSpaceOnUse">
      <path
         style="fill:#ad1720;fill-opacity:1;stroke:#000000;stroke-width:9.99997807;stroke-linecap:round;stroke-linejoin:round;stroke-miterlimit:4;stroke-opacity:1"
         d="m 39.578716,358.81874 c 0,165.98845 -134.56022,300.54867 -300.548666,300.54867 -165.98845,0 -300.54867,-134.56022 -300.54867,-300.54867 0,-165.98845 134.56022,-300.548675 300.54867,-300.548675 165.988446,0 300.548666,134.560225 300.548666,300.548675 z"
         id="use3455"
         inkscape:connector-curvature="0" />
    </clipPath>
    <clipPath
       id="clipPath3447"
       clipPathUnits="userSpaceOnUse">
      <path
         style="fill:#ad1720;fill-opacity:1;stroke:#000000;stroke-width:9.99997807;stroke-linecap:round;stroke-linejoin:round;stroke-miterlimit:4;stroke-opacity:1"
         d="m 657.99072,257.39974 c 0,165.98845 -134.56022,300.54867 -300.54867,300.54867 -165.98845,0 -300.548669,-134.56022 -300.548669,-300.54867 0,-165.988448 134.560219,-300.548675 300.548669,-300.548675 165.98845,0 300.54867,134.560227 300.54867,300.548675 z"
         id="use3449"
         inkscape:connector-curvature="0" />
    </clipPath>
    <clipPath
       id="clipPath3441"
       clipPathUnits="userSpaceOnUse">
      <path
         style="fill:#ad1720;fill-opacity:1;stroke:#000000;stroke-width:9.99997807;stroke-linecap:round;stroke-linejoin:round;stroke-miterlimit:4;stroke-opacity:1"
         d="m 1264.0367,257.39974 c 0,165.98845 -134.5602,300.54867 -300.54865,300.54867 -165.98845,0 -300.54867,-134.56022 -300.54867,-300.54867 0,-165.988448 134.56022,-300.548675 300.54867,-300.548675 165.98845,0 300.54865,134.560227 300.54865,300.548675 z"
         id="use3443"
         inkscape:connector-curvature="0" />
    </clipPath>
    <clipPath
       id="clipPath3435"
       clipPathUnits="userSpaceOnUse">
      <path
         style="fill:#ad1720;fill-opacity:1;stroke:#000000;stroke-width:9.11127949;stroke-linecap:round;stroke-linejoin:round;stroke-miterlimit:4;stroke-opacity:1"
         d="m 1025.0067,-181.04203 c 0,151.237049 -122.60184,273.838905 -273.8389,273.838905 -151.23705,0 -273.8389,-122.601856 -273.8389,-273.838905 0,-151.23706 122.60185,-273.83892 273.8389,-273.83892 151.23706,0 273.8389,122.60186 273.8389,273.83892 z"
         id="use3437"
         inkscape:connector-curvature="0" />
    </clipPath>
    <clipPath
       id="clipPath3428"
       clipPathUnits="userSpaceOnUse">
      <path
         transform="matrix(0.874101,0,0,0.874101,245.087,124.283)"
         d="m 217.68127,-211.35745 a 343.83746,343.83746 0 1 1 -687.67492,0 343.83746,343.83746 0 1 1 687.67492,0 z"
         sodipodi:ry="343.83746"
         sodipodi:rx="343.83746"
         sodipodi:cy="-211.35745"
         sodipodi:cx="-126.15619"
         id="path3430"
         style="fill:none;stroke:#000000;stroke-width:11.44029999;stroke-linecap:round;stroke-linejoin:round;stroke-miterlimit:4;stroke-opacity:1;stroke-dasharray:none"
         sodipodi:type="arc" />
    </clipPath>
    <inkscape:perspective
       sodipodi:type="inkscape:persp3d"
       inkscape:vp_x="0 : 526.18109 : 1"
       inkscape:vp_y="0 : 1000 : 0"
       inkscape:vp_z="744.09448 : 526.18109 : 1"
       inkscape:persp3d-origin="372.04724 : 350.78739 : 1"
       id="perspective3397" />
    <inkscape:perspective
       sodipodi:type="inkscape:persp3d"
       inkscape:vp_x="0 : 526.18109 : 1"
       inkscape:vp_y="0 : 1000 : 0"
       inkscape:vp_z="744.09448 : 526.18109 : 1"
       inkscape:persp3d-origin="372.04724 : 350.78739 : 1"
       id="perspective3367" />
    <inkscape:perspective
       sodipodi:type="inkscape:persp3d"
       inkscape:vp_x="0 : 526.18109 : 1"
       inkscape:vp_y="0 : 1000 : 0"
       inkscape:vp_z="744.09448 : 526.18109 : 1"
       inkscape:persp3d-origin="372.04724 : 350.78739 : 1"
       id="perspective2426" />
    <inkscape:perspective
       sodipodi:type="inkscape:persp3d"
       inkscape:vp_x="0 : 526.18109 : 1"
       inkscape:vp_y="0 : 1000 : 0"
       inkscape:vp_z="744.09448 : 526.18109 : 1"
       inkscape:persp3d-origin="372.04724 : 350.78739 : 1"
       id="perspective2413" />
    <inkscape:perspective
       id="perspective9"
       inkscape:persp3d-origin="372.04724 : 350.78739 : 1"
       inkscape:vp_z="744.09448 : 526.18109 : 1"
       inkscape:vp_y="0 : 1000 : 0"
       inkscape:vp_x="0 : 526.18109 : 1"
       sodipodi:type="inkscape:persp3d" />
    <marker
       style="overflow:visible"
       id="Arrow1Lend"
       refX="0"
       refY="0"
       orient="auto"
       inkscape:stockid="Arrow1Lend">
      <path
         transform="matrix(-0.8,0,0,-0.8,-10,0)"
         style="fill-rule:evenodd;stroke:#000000;stroke-width:1pt;marker-start:none"
         d="M 0,0 5,-5 -12.5,0 5,5 0,0 z"
         id="path3528"
         inkscape:connector-curvature="0" />
    </marker>
    <marker
       style="overflow:visible"
       id="Arrow1Lstart"
       refX="0"
       refY="0"
       orient="auto"
       inkscape:stockid="Arrow1Lstart">
      <path
         transform="matrix(0.8,0,0,0.8,10,0)"
         style="fill-rule:evenodd;stroke:#000000;stroke-width:1pt;marker-start:none"
         d="M 0,0 5,-5 -12.5,0 5,5 0,0 z"
         id="path3525"
         inkscape:connector-curvature="0" />
    </marker>
  </defs>
  <sodipodi:namedview
     id="base"
     pagecolor="#ffffff"
     bordercolor="#666666"
     borderopacity="1.0"
     inkscape:pageopacity="0.0"
     inkscape:pageshadow="2"
     inkscape:zoom="0.85849706"
     inkscape:cx="262.35243"
     inkscape:cy="-92.62705"
     inkscape:document-units="px"
     inkscape:current-layer="layer1"
     showgrid="false"
     inkscape:window-width="1920"
     inkscape:window-height="1178"
     inkscape:window-x="0"
     inkscape:window-y="0"
     inkscape:window-maximized="1"
     fit-margin-top="0"
     fit-margin-left="0"
     fit-margin-right="0"
     fit-margin-bottom="0" />
  <metadata
     id="metadata7">
    <rdf:RDF>
      <cc:Work
         rdf:about="">
        <dc:format>image/svg+xml</dc:format>
        <dc:type
           rdf:resource="http://purl.org/dc/dcmitype/StillImage" />
        <dc:title></dc:title>
      </cc:Work>
    </rdf:RDF>
  </metadata>
  <g
     inkscape:label="Layer 1"
     inkscape:groupmode="layer"
     id="layer1"
     transform="translate(-118.81243,-236.75)">
    <g
       id="g12143"
       style="fill:#87de87;stroke:#87de87"
       transform="matrix(0,-1,1,0,79.724343,934.39868)" />
    <g
       id="g12151"
       style="fill:#80b3ff;stroke:#80b3ff"
       transform="matrix(0,-1,1,0,79.724343,934.39868)" />
    <g
       id="g12159"
       style="fill:#e580ff;stroke:#e580ff"
       transform="matrix(0,-1,1,0,79.724343,934.39868)" />
    <g
       id="g12167"
       style="fill:#ff8080;stroke:#ff8080"
       transform="matrix(0,-1,1,0,79.724343,934.39868)" />
    <g
       id="g12175"
       style="fill:#ffdd55;stroke:#ffdd55"
       transform="matrix(0,-1,1,0,79.724343,934.39868)" />
    <g
       id="g12183"
       style="fill:#e580ff;stroke:#e580ff"
       transform="matrix(0,-1,1,0,79.724343,934.39868)" />
    <g
       id="g12191"
       style="fill:#87de87;stroke:#87de87"
       transform="matrix(0,-1,1,0,79.724343,934.39868)" />
    <g
       id="g12199"
       style="fill:#80b3ff;stroke:#80b3ff"
       transform="matrix(0,-1,1,0,79.724343,934.39868)" />
    <g
       id="g12207"
       style="fill:#ffdd55;stroke:#ffdd55"
       transform="matrix(0,-1,1,0,79.724343,934.39868)" />
    <g
       id="g12215"
       style="fill:#ff8080;stroke:#ff8080"
       transform="matrix(0,-1,1,0,79.724343,934.39868)" />
    <path
       style="fill:#ad1720;fill-opacity:1;stroke:#000000;stroke-width:2.4000001;stroke-linejoin:miter;stroke-miterlimit:4;stroke-opacity:1;stroke-dasharray:none"
       d="m 94.122907,29.788712 0,43.644082 0.744507,40.719076 67.573846,0 57.7581,0.63503 0,0.0962 9.05164,0 58.5222,0 66.82934,0.73125 -0.74451,-40.719076 0,-43.644082 -66.82933,-0.73125 -58.52221,0 -66.80974,-0.73125 -67.573843,0 z m 11.774973,19.628291 24.76467,0 24.76466,0 0,24.015791 c 0,13.20868 -0.15721,24.01579 -0.33307,24.01579 -0.17586,0 -5.73598,-2.66916 -12.36273,-5.92697 l -12.04927,-5.92698 -12.06886,5.92698 c -6.63394,3.25781 -12.19833,5.92697 -12.38233,5.92697 -0.18401,0 -0.33307,-10.80711 -0.33307,-24.01579 l 0,-24.015791 z m 62.38188,0 c 0.17586,0 5.75166,2.667243 12.38233,5.926974 l 12.04927,5.926974 12.04927,-5.926974 c 6.62219,-3.259731 12.19048,-5.926974 12.38233,-5.926974 0.19185,0 0.35266,10.807109 0.35266,24.015791 l 0,24.01579 -24.76467,0 -24.76466,0 0,-24.01579 c 0,-13.208682 0.13761,-24.015791 0.31347,-24.015791 z m 62.95006,0.73125 24.76467,0 24.76467,0 0,24.015791 c 0,13.20868 -0.13762,24.01579 -0.31348,24.01579 -0.17586,0 -5.75556,-2.66916 -12.38233,-5.92697 l -12.04927,-5.90773 -12.04926,5.90773 c -6.63392,3.25781 -12.21792,5.92697 -12.40193,5.92697 -0.18401,0 -0.33307,-10.80711 -0.33307,-24.01579 l 0,-24.015791 z m 62.38189,0 c 0.17586,0 5.75167,2.667243 12.38233,5.926974 l 12.04927,5.926974 12.04926,-5.926974 c 6.6222,-3.259731 12.19049,-5.926974 12.38234,-5.926974 0.19185,0 0.35266,10.807109 0.35266,24.015791 l 0,24.01579 -24.76467,0 -24.76467,0 0,-24.01579 c 0,-13.208682 0.13762,-24.015791 0.31348,-24.015791 z"
       id="path4080"
       inkscape:connector-curvature="0" />
    <text
       xml:space="preserve"
       style="font-size:35.3524704px;font-style:normal;font-weight:normal;text-align:start;line-height:125%;letter-spacing:0px;word-spacing:0px;text-anchor:start;fill:#000000;fill-opacity:1;stroke:none;font-family:Sans"
       x="365.59039"
       y="63.288021"
       id="text4085"
       sodipodi:linespacing="125%"
       transform="scale(1.0135124,0.98666775)"><tspan
         sodipodi:role="line"
         x="365.59039"
         y="63.288021"
         id="tspan4089"
         style="font-style:normal;font-variant:normal;font-weight:normal;font-stretch:normal;text-align:start;text-anchor:start;font-family:Arial;-inkscape-font-specification:Arial">Makers Academy</tspan><tspan
         sodipodi:role="line"
         x="365.59039"
         y="107.47861"
         style="font-style:normal;font-variant:normal;font-weight:normal;font-stretch:normal;text-align:start;text-anchor:start;font-family:Arial;-inkscape-font-specification:Arial"
         id="tspan4093">Marketing Array</tspan></text>
    <path
       style="fill:#1b8519;fill-opacity:1;stroke:#000000;stroke-width:2;stroke-miterlimit:4;stroke-opacity:1;stroke-dasharray:none"
       d="m 187.80337,428.06708 c -5.9775,-1.7943 -7.7609,-5.33432 -7.8048,-15.49197 -0.053,-12.3785 4.878,-18.15651 13.8208,-16.19347 5.2186,1.14556 7.233,3.37952 8.5395,9.47039 3.1138,14.51691 -4.005,25.38198 -14.5555,22.21505 z m 4.4914,-20.47173 c -0.601,-3.47644 -1.1089,-1.17496 -1.1285,5.1144 -0.02,6.28937 0.4721,9.13374 1.0928,6.32082 0.6207,-2.81293 0.6368,-7.95877 0.036,-11.43522 z m 18.3894,17.50994 c -6.0058,-3.0594 -6.5235,-25.28771 -0.6877,-29.5237 6.3186,-4.58644 17.0312,-0.97819 17.0312,5.73652 0,3.51889 -1.4899,5.67404 -3.9225,5.67404 -2.1573,0 -3.9224,-1.54376 -3.9224,-3.43057 0,-1.88681 -1.1768,-3.43056 -2.615,-3.43056 -1.4382,0 -2.6149,4.63126 -2.6149,10.29169 0,5.66043 1.1767,10.29169 2.6149,10.29169 1.4382,0 2.615,-1.54375 2.615,-3.43056 0,-1.88681 1.7651,-3.43057 3.9224,-3.43057 5.6777,0 4.821,8.56669 -1.1356,11.35476 -6.0197,2.81766 -5.544,2.82198 -11.2854,-0.10269 z m 21.5734,-13.53906 c 0,-12.7058 0.8094,-16.0093 3.9224,-16.0093 2.272,0 3.9969,2.16526 4.0994,5.14585 l 0.177,5.14584 2.8376,-5.14584 c 4.2603,-7.72597 10.9776,-6.81873 8.4666,1.14352 -1.0908,3.45915 -1.9833,7.83312 -1.9833,9.71993 0,1.88681 0.8925,6.26078 1.9833,9.71993 1.5494,4.91307 1.0915,6.28937 -2.0926,6.28937 -2.2416,0 -5.2752,-1.80105 -6.7412,-4.00233 -2.5384,-3.81174 -2.6691,-3.81174 -2.7449,0 -0.044,2.20128 -1.8446,4.00233 -4.0019,4.00233 -3.113,0 -3.9224,-3.3035 -3.9224,-16.0093 z m -75.8335,-2.28704 c 0,-14.65443 0.4571,-16.0093 5.4018,-16.0093 11.7975,0 14.7614,3.59715 14.9982,18.2028 0.1719,10.60607 -0.653,13.8158 -3.5507,13.8158 -2.2829,0 -3.7746,-2.25949 -3.7746,-5.71761 0,-3.14468 -1.1767,-5.71761 -2.6149,-5.71761 -1.4382,0 -2.615,2.57293 -2.615,5.71761 0,3.55763 -1.4818,5.71761 -3.9224,5.71761 -3.113,0 -3.9224,-3.3035 -3.9224,-16.0093 z m 13.0747,-6.86113 c 0,-1.25787 -1.1767,-2.28704 -2.6149,-2.28704 -1.4382,0 -2.615,1.02917 -2.615,2.28704 0,1.25787 1.1768,2.28704 2.615,2.28704 1.4382,0 2.6149,-1.02917 2.6149,-2.28704 z m -33.1713,-21.64379 c -15.3025,-5.82094 -16.5137,-10.98019 -16.5029,-70.2961 0.01,-49.22412 0.4079,-53.85841 5.2311,-60.77719 2.8718,-4.11945 8.2392,-8.49341 11.9277,-9.71994 3.6886,-1.22652 34.9889,-2.23003 69.5564,-2.23003 l 62.8499,0 8.89079,7.77594 8.8908,7.77595 0,54.96882 c 0,30.23288 -1.1474,57.6083 -2.5497,60.83428 -1.4024,3.22599 -6.4035,7.92042 -11.1136,10.43203 -7.91689,4.2217 -13.10619,4.56048 -68.70739,4.48562 -45.33,-0.0611 -62.1953,-0.86137 -68.4731,-3.24938 z m 81.3233,-17.35891 c 17.098,-5.59495 25.1094,-15.09459 27.9005,-33.08349 1.6345,-10.53409 3.4415,-13.14484 16.7357,-24.17877 8.1969,-6.80326 15.97239,-12.71262 17.27889,-13.13191 1.3066,-0.41929 2.3755,-9.28418 2.3755,-19.69975 0,-17.4117 -0.5554,-19.42316 -6.8939,-24.96687 -3.79169,-3.31621 -9.54759,-6.02948 -12.79089,-6.02948 -3.4849,0 -14.6248,6.44765 -27.2356,15.7635 -20.8668,15.41476 -21.799,15.82234 -42.1371,18.42327 -11.4391,1.46288 -26.6388,4.17671 -33.7771,6.03073 -11.5228,2.99282 -13.3012,4.32546 -15.8538,11.88004 -1.5813,4.67999 -2.4803,15.19868 -1.9977,23.37485 l 0.8774,14.86578 2.2536,-14.29401 c 1.2394,-7.86171 3.2783,-14.29402 4.5307,-14.29402 2.7941,0 2.7576,3.57966 -0.2444,23.96816 -2.2294,15.14125 -0.6818,21.77269 5.0812,21.77269 1.0556,0 2.7058,-7.40121 3.667,-16.44713 0.9613,-9.04592 2.307,-16.93621 2.9905,-17.534 3.4369,-3.0059 3.8427,3.19717 1.3448,20.55528 -2.4365,16.93106 -2.2548,19.46538 1.5717,21.92901 6.186,3.98268 8.7818,1.60724 8.8147,-8.06638 0.04,-11.57779 2.8678,-25.59425 5.1645,-25.59425 1.0417,0 1.7703,8.49065 1.6191,18.8681 -0.2643,18.13376 -0.036,18.89765 5.8569,19.62738 15.3964,1.90646 32.6477,-10.657 31.3181,-22.80769 -0.8754,-7.99976 -8.6587,-11.33742 -8.7146,-3.73707 -0.016,2.17033 -2.0753,5.73567 -4.5762,7.92297 -4.3195,3.77783 -4.5471,3.42499 -4.5471,-7.04955 0,-9.24352 0.6878,-10.79562 4.2539,-9.59881 2.3396,0.78523 5.7637,0.33169 7.6092,-1.00786 4.7498,-3.44769 11.6714,5.81568 11.6714,15.62016 0,7.63884 -7.3206,16.03985 -19.7133,22.62288 -8.1023,4.30389 -0.124,3.43068 15.5664,-1.70376 z"
       id="path4576"
       inkscape:connector-curvature="0"
       sodipodi:nodetypes="scsssccscccssssssssssccssscscscsccssssssssssssssssscscscccscsssssscsssssssscsssscssscsssscsscssss" />
    <path
       sodipodi:nodetypes="scsssssscccccsscssssssssssscsccsssssscsscccsssssssscsscsssssscccccssssscccsccsscssssssssssssssccscsscssssssssssss"
       inkscape:connector-curvature="0"
       id="path4663"
       d="m 163.37464,684.0694 0,-16.14734 9.80605,0.7098 c 9.00341,0.65174 9.87431,1.33237 10.64021,8.31558 0.66934,6.10322 -0.23456,7.85018 -4.57616,8.84314 -3.89242,0.89026 -5.41032,3.08754 -5.41032,7.8318 0,5.06969 -1.2092,6.59439 -5.22989,6.59439 -4.73606,0 -5.22989,-1.5247 -5.22989,-16.14737 z m 12.24608,-7.15188 c -0.83475,-1.82444 -1.45438,-1.28253 -1.57985,1.38177 -0.11349,2.4109 0.5045,3.7617 1.37342,3.00174 0.86892,-0.75999 0.96181,-2.73256 0.20632,-4.38351 z m 38.51475,20.16783 c -0.75567,-1.72228 -1.0129,-8.66917 -0.57168,-15.43754 l 0.80227,-12.30612 9.1523,0 c 8.04046,0 9.25283,0.76406 9.97973,6.28937 0.59103,4.49237 -0.3429,6.28937 -3.26868,6.28937 -2.25285,0 -4.0961,-1.48301 -4.0961,-3.29558 0,-1.81258 -1.17673,-3.93166 -2.61495,-4.70907 -1.59723,-0.86336 -2.61494,2.64446 -2.61494,9.01319 0,5.73467 1.17672,10.42667 2.61494,10.42667 1.43822,0 2.61495,-1.54375 2.61495,-3.43056 0,-1.88681 1.76509,-3.43057 3.92242,-3.43057 4.69223,0 5.2007,7.11536 0.78448,10.97781 -4.25854,3.72454 -15.01007,3.47548 -16.70474,-0.38697 z m -71.02665,-0.62047 c -4.49922,-1.65639 -4.1358,-9.97037 0.43583,-9.97037 2.03746,0 4.22983,1.28646 4.87188,2.85881 0.64207,1.57234 2.16504,2.04139 3.38442,1.04232 1.21935,-0.99908 -1.08816,-4.12148 -5.12783,-6.93868 -10.24959,-7.14793 -8.8649,-16.1181 2.63926,-17.0972 5.76972,-0.49105 8.66428,0.44357 9.8676,3.18614 2.37743,5.4186 -0.34284,6.99186 -6.38404,3.69216 -7.3656,-4.02309 -6.2907,0.0993 1.58818,6.09081 8.97196,6.82279 8.11588,17.25173 -1.46926,17.89835 -3.59555,0.24256 -8.00827,-0.10041 -9.80604,-0.76234 z m 46.70116,-1.66445 c -1.89175,-1.99359 -2.86438,-8.32 -2.3911,-15.55314 l 0.79774,-12.19264 9.15231,0 9.15229,0 0,14.86578 c 0,14.28612 -0.26364,14.89258 -6.7612,15.55317 -3.71862,0.37805 -8.19617,-0.82487 -9.95004,-2.67317 z m 10.17388,-14.1585 c 0,-6.36873 -1.01771,-9.87655 -2.61493,-9.01319 -1.43822,0.77741 -2.61495,5.46941 -2.61495,10.42667 0,4.95726 1.17673,9.01319 2.61495,9.01319 1.4382,0 2.61493,-4.69201 2.61493,-10.42667 z m 37.68611,14.15638 c -0.75566,-1.72228 -1.01289,-8.65952 -0.57168,-15.41611 0.62328,-9.54365 1.82333,-12.45448 5.37842,-13.04559 2.98394,-0.49613 4.60382,0.69003 4.65568,3.40916 0.0748,3.92692 0.23482,3.93669 2.74488,0.16764 1.46594,-2.20128 4.31076,-4.00233 6.32181,-4.00233 2.92714,0 3.111,1.3685 0.92174,6.86113 -1.9299,4.84192 -1.8899,8.98076 0.13598,14.06353 3.79308,9.51641 3.63156,11.09394 -1.13591,11.09394 -2.20369,0 -5.0709,-2.31563 -6.37162,-5.14585 l -2.36493,-5.14584 -0.16579,5.14584 c -0.18226,5.66021 -7.29107,7.15991 -9.54865,2.01443 z M 135.62516,654.58002 c -3.03736,-1.10553 -8.03844,-4.8075 -11.11351,-8.22663 -5.37827,-5.97995 -5.58885,-8.40293 -5.53291,-63.65598 0.0628,-62.03495 0.32577,-63.27384 14.80587,-69.75045 7.84499,-3.50889 127.16847,-3.50889 135.01345,0 14.48745,6.4799 14.74308,7.68887 14.80587,70.02279 l 0.058,57.71176 -7.62604,7.46895 -7.62604,7.46898 -63.6312,0.48531 c -34.99716,0.26692 -66.11631,-0.41919 -69.15364,-1.52473 z m 95.73804,-6.78975 c 0,-2.41925 3.07282,-7.59252 6.82846,-11.49618 7.94271,-8.25572 11.31842,-19.09317 11.43374,-36.70719 0.0452,-6.91831 2.41783,-19.26834 5.2723,-27.44452 6.38367,-18.28508 6.61959,-23.45027 1.02616,-22.46636 -4.57451,0.80469 -17.67998,28.40531 -15.66653,32.99435 1.87926,4.28315 -1.22578,5.55964 -6.97628,2.86798 -3.28254,-1.53646 -4.1785,-3.02583 -2.39892,-3.98776 1.56224,-0.84444 6.90131,-10.76823 11.8646,-22.05284 7.75093,-17.6227 8.50948,-20.98767 5.37636,-23.85003 -5.11337,-4.67144 -7.15052,-1.97075 -15.45242,20.48537 -8.29372,22.43403 -10.00781,24.7076 -15.57885,20.66381 -2.668,-1.93657 -4.04092,-6.89708 -4.05596,-14.65448 -0.0125,-6.44982 -0.76477,-17.13008 -1.67171,-23.73391 -1.36003,-9.9029 -2.54572,-12.00697 -6.76627,-12.00697 -4.8792,0 -5.02967,1.14385 -3.23385,24.5857 1.03588,13.52214 2.91422,24.92876 4.17405,25.34805 4.61075,1.53454 2.12441,4.95492 -3.59301,4.94275 -5.70243,-0.0114 -5.88581,-0.71486 -5.95532,-22.81877 -0.0478,-15.25776 -1.16587,-23.76325 -3.37757,-25.6976 -6.29914,-5.50925 -8.23712,3.27717 -8.27794,37.53046 -0.0261,20.86589 -1.07595,34.15885 -2.77352,35.07645 -1.50344,0.81266 -10.93117,-2.78191 -20.95054,-7.9879 -10.01938,-5.206 -19.37983,-8.83693 -20.80103,-8.06874 -5.01512,2.71086 -2.45812,7.11129 8.99967,15.48783 6.371,4.6577 12.40813,10.79338 13.41585,13.6348 1.00772,2.84145 6.38562,9.51726 11.95087,14.83511 5.56526,5.31786 10.11866,11.75016 10.11866,14.29402 0,4.29959 1.65662,4.62517 23.53449,4.62517 21.47825,0 23.53451,-0.38431 23.53451,-4.3986 z m -21.79057,-19.99312 c -0.93558,-5.04224 -4.92326,-11.42156 -10.00742,-16.00929 -4.64866,-4.19478 -7.16646,-7.62688 -5.59509,-7.62688 1.57138,0 6.50909,3.63791 10.97275,8.08424 5.73797,5.71571 8.11571,10.40611 8.11571,16.0093 0,10.29844 -1.52746,10.09802 -3.48595,-0.45737 z"
       style="fill:#a317ad;fill-opacity:1;stroke:#000000;stroke-width:2;stroke-miterlimit:4;stroke-opacity:1;stroke-dasharray:none" />
    <path
       sodipodi:nodetypes="ssssssssssssssssscscccccsssscsccsccssssscssscssssssssssscsscccsscccsccccssssssscsssssssssccccc"
       inkscape:connector-curvature="0"
       id="path4665"
       d="m 429.5438,419.9424 c 0,-12.7058 0.80938,-16.0093 3.92242,-16.0093 3.11304,0 3.92242,3.3035 3.92242,16.0093 0,12.7058 -0.80938,16.0093 -3.92242,16.0093 -3.11304,0 -3.92242,-3.3035 -3.92242,-16.0093 z m 20.26583,14.34326 c -5.39333,-0.49341 -9.80605,-1.40843 -9.80605,-2.03337 0,-0.62491 1.34657,-5.81338 2.99239,-11.52989 2.3602,-8.19786 2.28944,-10.77367 -0.335,-12.19227 -4.81704,-2.60378 -0.77873,-6.88407 6.49492,-6.88407 8.62887,0 9.4524,2.21454 5.30528,14.26643 -1.98213,5.76026 -2.90803,11.08182 -2.05754,11.82566 3.69298,3.2299 8.51951,0.91887 8.51951,-4.0793 0,-13.09277 3.11762,-19.72575 9.27139,-19.72575 6.28162,0 6.75864,1.0198 10.43057,22.29867 1.75277,10.15735 -1.81636,13.01272 -8.71919,6.97548 -2.44061,-2.13457 -3.13793,-2.13457 -3.13793,0 0,1.50945 -2.05927,2.57143 -4.57616,2.36 -2.51688,-0.21155 -8.98887,-0.78816 -14.38219,-1.28159 z m 20.74464,-14.77208 c -0.83474,-1.82444 -1.45438,-1.28253 -1.57984,1.38176 -0.11349,2.41091 0.50447,3.76171 1.37342,3.00175 0.86892,-0.75999 0.9618,-2.73256 0.20632,-4.38351 z m 37.97214,1.00058 c 0.73922,-14.75879 1.07492,-15.46814 7.63556,-16.13346 9.49392,-0.9628 15.36468,4.97418 15.36468,15.53801 0,13.78215 -1.8916,16.03299 -13.47397,16.03299 l -10.29949,0 z m 11.80195,-4.54264 c -0.60105,-3.47644 -1.10889,-1.17496 -1.12853,5.1144 -0.0183,6.28937 0.47215,9.13374 1.09284,6.32082 0.62068,-2.81293 0.63676,-7.95877 0.0356,-11.43522 z m -109.08917,1.68384 c 0,-12.7058 0.80938,-16.0093 3.92242,-16.0093 3.01385,0 3.92241,2.9303 3.92241,12.6505 0,9.13514 1.08999,13.01634 3.92242,13.96695 6.64567,2.23041 4.34303,5.40115 -3.92242,5.40115 l -7.84483,0 z m 73.21845,0 c 0,-14.65443 0.45715,-16.0093 5.4018,-16.0093 11.79753,0 14.76142,3.59715 14.9982,18.2028 0.1718,10.60607 -0.65295,13.8158 -3.55065,13.8158 -2.28298,0 -3.77462,-2.25949 -3.77462,-5.71761 0,-3.14468 -1.17673,-5.71761 -2.61495,-5.71761 -1.43822,0 -2.61494,2.57293 -2.61494,5.71761 0,3.55763 -1.48181,5.71761 -3.92242,5.71761 -3.11304,0 -3.92242,-3.3035 -3.92242,-16.0093 z m 13.07473,-5.58263 c 0,-0.5547 -1.17673,-1.64461 -2.61495,-2.42202 -1.43822,-0.77741 -2.61494,-0.32357 -2.61494,1.00854 0,1.33211 1.17672,2.42202 2.61494,2.42202 1.43822,0 2.61495,-0.45384 2.61495,-1.00854 z m -101.16223,-23.9715 c -4.58243,-2.47872 -9.58351,-6.55249 -11.11351,-9.05287 -1.75013,-2.8601 -2.78183,-25.46738 -2.78183,-60.95771 l 0,-56.41158 8.89081,-7.77595 8.89081,-7.77594 63.67391,0.008 c 90.80826,0.0121 86.7689,-3.72824 85.4242,79.10241 l -0.83075,51.17141 -8.54407,7.47241 -8.54406,7.47241 -63.36691,0.62679 c -59.19427,0.58553 -63.91555,0.33004 -71.6986,-3.87992 z m 62.60003,-20.18905 -1.29636,-20.01162 11.43071,-7.32023 c 43.27639,-27.7142 50.43862,-43.40636 13.73955,-30.10283 -15.15343,5.49318 -25.36771,4.58717 -29.79165,-2.64249 -2.28091,-3.72749 -1.59867,-5.60588 3.72807,-10.26469 7.49425,-6.55449 19.73669,-7.40311 44.37308,-3.07583 11.45924,2.01276 15.68033,1.99051 18.06514,-0.0952 4.02662,-3.52169 1.25651,-5.05054 -25.37273,-14.00344 l -20.68354,-6.95391 -16.74647,4.87405 c -18.67021,5.43396 -25.50065,4.28519 -9.62279,-1.61839 19.26838,-7.16423 31.50512,-6.64823 55.79226,2.35263 12.12761,4.49453 22.61012,7.68217 23.29442,7.08367 1.63513,-1.43009 -42.64632,-19.29437 -51.79157,-20.89406 -5.04799,-0.883 -13.08495,1.39721 -27.92335,7.92227 -11.45937,5.03917 -22.10572,10.53762 -23.65853,12.21876 -2.89968,3.1393 -7.17698,24.32585 -9.90483,49.06122 -1.42983,12.96531 0.0724,23.03404 6.70009,44.90535 l 2.59889,8.57641 19.183,0 19.18297,0 -1.29636,-20.01163 z"
       style="fill:#ada317;fill-opacity:1;stroke:#000000;stroke-width:2;stroke-miterlimit:4;stroke-opacity:1;stroke-dasharray:none" />
    <path
       sodipodi:nodetypes="ssssccssscssssssccssccsscsscccscccssssscscssccssssssccssccssssscssssssccssccscssscscsccscccssccccsssssscsssscsscssscsssscssscsssssssssss"
       inkscape:connector-curvature="0"
       id="path4667"
       d="m 432.43328,693.10632 c -1.8864,-1.98794 -2.8588,-8.32399 -2.3861,-15.54789 0.7765,-11.86762 1.0068,-12.19263 8.6426,-12.19263 6.6141,0 7.9746,0.9867 8.6722,6.28936 1.0282,7.81549 -6.4339,8.86454 -8.1343,1.14353 -0.6232,-2.83022 -1.2577,0 -1.4098,6.28936 -0.2126,8.78424 0.3413,10.50736 2.3888,7.43289 4.0466,-6.0764 8.0858,-4.78536 7.1553,2.28704 -0.9515,7.23232 -9.7427,9.76353 -14.9287,4.29834 z m 32.9618,1.71485 c -3.3858,-2.96124 -1.9356,-10.01551 2.059,-10.01551 2.1574,0 3.9225,1.2007 3.9225,2.66822 0,1.46751 0.7891,1.97804 1.7536,1.13449 0.9645,-0.84353 -0.8976,-4.00184 -4.1379,-7.01848 -8.488,-7.90219 -6.6128,-16.22409 3.6559,-16.22409 5.3582,0 8.0856,1.25613 8.6903,4.00232 1.0111,4.59181 -6.1783,5.59075 -8.2301,1.14352 -0.8969,-1.94408 -1.385,-1.75423 -1.5254,0.59338 -0.1135,1.8987 2.2175,4.77616 5.1802,6.39436 8.1851,4.47069 6.1622,17.35353 -2.8695,18.27473 -3.6494,0.37222 -7.4738,-0.0565 -8.4986,-0.95294 z m 42.8716,-1.71485 c -1.8864,-1.98794 -2.8588,-8.32399 -2.3861,-15.54789 0.7765,-11.86762 1.0068,-12.19263 8.6426,-12.19263 l 7.8448,0 0,14.86577 c 0,13.33097 -0.5636,14.9362 -5.4587,15.54791 -3.0023,0.37517 -6.8915,-0.82775 -8.6426,-2.67316 z m 6.8254,-19.13267 c -0.601,-3.47644 -1.1089,-1.17496 -1.1285,5.1144 -0.018,6.28937 0.4721,9.13374 1.0928,6.32082 0.6207,-2.81293 0.6368,-7.95877 0.036,-11.43522 z m 36.59617,20.84752 c -3.38583,-2.96124 -1.93556,-10.01551 2.05906,-10.01551 2.15733,0 3.92241,1.2007 3.92241,2.66822 0,1.46751 0.78911,1.97804 1.75361,1.13449 0.96449,-0.84353 -0.89753,-4.00184 -4.13783,-7.01848 -7.63012,-7.10344 -6.5457,-15.92822 2.08849,-16.99595 5.64094,-0.69757 10.6108,2.57745 10.71547,7.06122 0.0672,2.87605 -7.27959,1.90907 -8.68792,-1.14352 -1.05515,-2.28704 -1.36021,-2.28704 -1.52537,0 -0.11349,1.57234 2.21828,4.97949 5.18185,7.57144 7.64121,6.68304 6.00151,16.78605 -2.87121,17.69103 -3.64938,0.37222 -7.47374,-0.0565 -8.49856,-0.95294 z m -141.20707,-2.28705 c -1.0248,-0.89631 -1.8633,-3.51648 -1.8633,-5.8226 0,-5.35657 7.7753,-5.54064 8.0513,-0.19051 0.1367,2.65011 0.6731,2.98123 1.5877,0.98004 0.7597,-1.66227 -1.1953,-5.42093 -4.3443,-8.3526 -8.33,-7.75495 -6.3525,-16.06963 3.8218,-16.06963 5.3581,0 8.0856,1.25614 8.6903,4.00233 1.0111,4.59181 -6.1784,5.59074 -8.2302,1.14352 -0.8969,-1.94408 -1.385,-1.75423 -1.5253,0.59337 -0.1135,1.8987 2.2175,4.77617 5.1801,6.39437 8.1851,4.47068 6.1622,17.35353 -2.8695,18.27473 -3.6494,0.37221 -7.4737,-0.0565 -8.4986,-0.95295 z m 42.5907,-14.39901 c 0,-13.08801 0.7765,-16.19988 4.0419,-16.19988 3.3192,0 3.9037,2.72764 3.2687,15.25526 -0.4895,9.6586 -1.9724,15.60182 -4.0419,16.1999 -2.4089,0.69616 -3.2687,-3.31625 -3.2687,-15.25528 z m 33.2427,14.39901 c -1.0248,-0.89631 -1.8633,-3.51648 -1.8633,-5.8226 0,-5.35657 7.7753,-5.54064 8.0513,-0.19051 0.1367,2.65011 0.6731,2.98123 1.5877,0.98004 0.7597,-1.66227 -1.1953,-5.42093 -4.3443,-8.3526 -8.33,-7.75495 -6.3525,-16.06963 3.8218,-16.06963 5.3581,0 8.0856,1.25614 8.6903,4.00233 1.0111,4.59181 -6.1784,5.59074 -8.2302,1.14352 -0.8969,-1.94408 -1.385,-1.75423 -1.5253,0.59337 -0.1135,1.8987 2.2175,4.77617 5.1801,6.39437 8.1851,4.47068 6.1622,17.35353 -2.8695,18.27473 -3.6494,0.37221 -7.4737,-0.0565 -8.4986,-0.95295 z m 42.59075,-14.39901 0,-16.19988 7.66862,0 c 8.77382,0 9.98273,2.42498 9.59054,19.2379 -0.3043,13.04572 -6.60488,17.95447 -7.10875,5.53839 l -0.3094,-7.62347 -1.65181,6.67245 c -0.90851,3.66986 -3.12274,7.10042 -4.92051,7.62349 -2.40965,0.70107 -3.26869,-3.30645 -3.26869,-15.24888 z M 417.05128,645.91633 c -4.7101,-2.51161 -9.7112,-7.20604 -11.1135,-10.43203 -1.4024,-3.22598 -2.5498,-30.6014 -2.5498,-60.83428 l 0,-54.96883 8.8908,-7.77595 8.8908,-7.77594 63.6739,0.0337 c 70.40345,0.0373 73.80297,0.61085 81.32076,13.72035 3.94286,6.87559 4.57264,14.98612 4.57615,58.93299 0.005,76.97147 3.81894,73.68794 -85.55141,73.67511 -54.9289,-0.007 -60.2417,-0.3646 -68.1377,-4.57514 z m 97.2857,-28.27672 c 9.5061,-7.84122 11.90613,-12.88044 6.1345,-12.88044 -3.0637,0 -38.5375,11.3586 -41.246,13.20682 -3.0029,2.04915 9.4961,7.37656 17.3066,7.37656 6.021,0 11.1637,-2.22493 17.8049,-7.70294 z m 37.81359,-6.59107 12.97893,-9.71994 0.19246,-21.21174 c 0.18096,-19.93068 -0.16291,-21.33789 -5.69109,-23.3002 -3.23598,-1.14864 -11.17888,-5.23544 -17.65086,-9.08177 -16.15223,-9.59934 -23.34883,-9.13501 -35.12613,2.26637 -5.8677,5.68042 -9.0764,10.78069 -8.2733,13.1505 0.7216,2.12916 2.0838,6.70142 3.0271,10.16057 2.9186,10.70265 11.6079,5.65225 11.6079,-6.74677 0,-6.70911 0.7986,-7.54704 7.1911,-7.5454 6.72959,0.002 7.23935,0.69895 7.94253,10.86344 0.7034,10.16766 3.89546,14.7613 12.04041,17.32716 1.59381,0.5021 2.12467,1.64427 1.17966,2.53816 -0.94502,0.89389 -5.35774,-0.0206 -9.80605,-2.03266 -7.21225,-3.26194 -8.08775,-4.76576 -8.08775,-13.8909 0,-11.70962 -4.4836,-13.96115 -5.718,-2.87143 -0.5774,5.1877 -2.8991,8.37767 -7.8622,10.80255 -8.7012,4.2512 -9.9035,3.23788 -13.7135,-11.55766 l -3.0459,-11.82849 -28.4662,-8.90464 c -15.6563,-4.89755 -30.011,-8.38614 -31.8992,-7.75243 -8.7386,2.93282 -1.8281,8.47458 24.0489,19.28573 23.6583,9.88421 33.5167,16.39688 29.7161,19.63126 -0.5372,0.45718 -15.0974,2.10753 -32.3561,3.66743 -33.1185,2.99338 -40.1233,5.08865 -35.0138,10.47324 4.0775,4.29694 55.9687,4.06117 76.8529,-0.34918 20.022,-4.22829 18.3048,-4.41825 26.0437,2.88117 7.54777,7.11926 8.4237,12.46488 2.7207,16.60443 -6.2946,4.56898 -4.5797,6.86113 5.13317,6.86113 6.87441,0 12.18175,-2.3412 22.03452,-9.71993 z m -54.06769,-4.1659 c 27.6701,-9.48196 23.9751,-12.9686 -7.8778,-7.43369 -21.0617,3.6598 -23.3204,4.52999 -21.1146,8.13476 3.2507,5.31225 12.0667,5.09905 28.9924,-0.70107 z"
       style="fill:#17ada3;fill-opacity:1;stroke:#000000;stroke-width:2;stroke-miterlimit:4;stroke-opacity:1;stroke-dasharray:none" />
    <path
       sodipodi:nodetypes="ssssscsscccccsssssssscssssssscccccssssssscccccsssssscsssccccccscccccccssccssssssscscssscscscssssscssss"
       inkscape:connector-curvature="0"
       id="path4669"
       d="m 176.05921,945.40433 c 1.9422,-15.82201 3.5755,-18.52728 10.4832,-17.3638 4.6827,0.78874 7.0417,6.33914 9.8097,23.08141 1.2211,7.38573 0.7147,8.57641 -3.6476,8.57641 -2.786,0 -5.0654,-1.235 -5.0654,-2.74445 0,-2.13457 -0.6974,-2.13457 -3.138,0 -1.7258,1.50945 -4.7261,2.74445 -6.6672,2.74445 -2.7731,0 -3.1533,-3.06258 -1.7747,-14.29402 z m 10.7512,-2.1441 c -0.8347,-1.82444 -1.4544,-1.28253 -1.5798,1.38176 -0.1135,2.41091 0.5044,3.76171 1.3734,3.00175 0.8689,-0.75999 0.9618,-2.73256 0.2063,-4.38351 z m 35.3572,1.00058 c 0.7487,-14.94847 1.001,-15.46045 7.9643,-16.1612 5.1365,-0.51692 7.1911,0.2999 7.1911,2.8588 0,1.97036 -1.1767,3.58247 -2.6149,3.58247 -3.7527,0 -3.2316,6.22828 0.6537,7.81407 2.6149,1.06727 2.6149,1.60093 0,2.6682 -4.5159,1.84315 -4.1046,7.67705 0.6537,9.27405 7.0913,2.37997 4.0991,5.40115 -5.3493,5.40115 l -9.2718,0 z m -68.5228,-1.78705 c 0,-16.52955 3.0651,-19.71995 14.5489,-15.1437 8.2937,3.30501 9.0755,15.29993 1.1407,17.50251 -3.3417,0.92763 -5.2298,3.46037 -5.2298,7.01525 0,4.03878 -1.4333,5.56349 -5.2299,5.56349 -4.6961,0 -5.2299,-1.52471 -5.2299,-14.93755 z m 12.2461,-8.3617 c -0.8348,-1.82444 -1.4544,-1.28253 -1.5799,1.38176 -0.1135,2.41091 0.5045,3.76171 1.3734,3.00175 0.8689,-0.75999 0.9618,-2.73256 0.2063,-4.38351 z m 34.8229,7.28995 c 0,-14.25708 0.549,-16.0093 5.016,-16.0093 9.9413,0 13.2886,2.61519 13.2886,10.38226 0,5.59724 -1.3812,7.98923 -5.2299,9.0576 -3.3417,0.92763 -5.2299,3.46037 -5.2299,7.01525 0,3.42062 -1.5108,5.56349 -3.9224,5.56349 -3.113,0 -3.9224,-3.3035 -3.9224,-16.0093 z m 9.6311,-7.28995 c -0.8347,-1.82444 -1.4544,-1.28253 -1.5798,1.38176 -0.1135,2.41091 0.5044,3.76171 1.3734,3.00175 0.8689,-0.75999 0.9618,-2.73256 0.2063,-4.38351 z m 32.208,7.28995 c 0,-14.65443 0.4571,-16.0093 5.4018,-16.0093 11.7975,0 12.83623,3.47683 9.22268,16.03698 -1.66838,5.79904 4.36851,8.47089 5.59314,11.01653 1.22462,2.54565 -2.36302,4.96509 -4.51002,4.96509 -3.5871,0 -5.2016,-2.00974 -5.9711,-7.43289 l -1.0547,-7.43289 -0.4185,7.43289 c -0.277,4.91963 -1.7447,7.43289 -4.3409,7.43289 -3.113,0 -3.9224,-3.3035 -3.9224,-16.0093 z m 9.6311,-7.28995 c -0.8347,-1.82444 -1.4543,-1.28253 -1.5798,1.38176 -0.1135,2.41091 0.5045,3.76171 1.3734,3.00175 0.8689,-0.75999 0.9618,-2.73256 0.2063,-4.38351 z m -110.791,-21.21497 c -15.7938,-6.00783 -16.862,-10.9226 -15.9881,-73.56472 l 0.7829,-56.11899 8.5399,-6.66978 8.5398,-6.66977 65.2911,0 65.2911,0 8.5398,6.66977 8.5399,6.66978 0.7829,56.11899 c 0.8803,63.10129 -0.1452,67.66245 -16.5623,73.66178 -12.5785,4.59661 -121.6259,4.5175 -133.757,-0.097 z m 61.9357,-22.94695 c 0,-1.88318 -3.8553,-7.28631 -8.5673,-12.00698 -16.3493,-16.37925 -16.4844,-16.64891 -7.1727,-14.31322 4.5305,1.13638 19.2628,7.26454 32.7384,13.61812 13.4756,6.35359 26.931,11.55197 29.9008,11.55197 9.0586,0 6.0966,-6.61127 -5.7138,-12.75374 -6.1124,-3.17901 -15.6858,-8.15253 -21.2742,-11.05227 -5.5883,-2.89974 -9.1036,-5.84362 -7.8116,-6.54195 1.2919,-0.69835 12.2388,3.83496 24.3262,10.07399 22.0565,11.3846 32.1077,13.23813 33.6398,6.20344 0.5912,-2.71467 -6.1943,-7.09719 -24.0954,-15.56236 -23.3131,-11.02439 -31.3566,-16.10796 -25.487,-16.10796 1.368,0 12.1338,4.74456 23.924,10.54347 14.6118,7.18676 22.2883,9.79863 24.1117,8.20392 4.106,-3.59118 1.1542,-6.01376 -21.4499,-17.60387 -11.5045,-5.89888 -21.5756,-11.65685 -22.3802,-12.79551 -3.118,-4.4124 4.7103,-1.66217 22.9373,8.05831 10.4457,5.57071 19.4183,9.75586 19.9392,9.30033 2.1429,-1.87423 -3.5336,-6.35864 -21.3302,-16.85061 -24.9074,-14.68409 -35.9432,-19.42349 -59.3414,-25.48463 -13.2006,-3.4195 -24.4808,-8.3385 -34.6199,-15.09686 -8.2717,-5.51357 -16.1732,-10.02469 -17.5589,-10.02469 -5.339,0 -7.9333,9.63559 -7.9333,29.4648 l 0,20.61734 9.6095,6.40576 c 6.1697,4.11272 12.2546,11.50559 16.9987,20.6525 6.4255,12.38884 9.6871,15.59502 25.0105,24.58571 19.2288,11.28203 21.5997,12.04107 21.5997,6.91499 z"
       style="fill:#1721ad;fill-opacity:1;stroke:#000000;stroke-width:2;stroke-miterlimit:4;stroke-opacity:1;stroke-dasharray:none" />
  </g>
</svg>
